# xmcd
#
# Track frame offsets:
#	150
#	22364
#	38480
#	60841
#	75272
#	92432
#	111311
#	133151
#	148143
#	165252
#	186001
#	200925
#	218347
#	233874
#	251442
#	269483
#	286977
#	307833
#
# Disc length: 4360 seconds
#
# Revision: 0
# Processed by: cddbd v1.5.2PL0 Copyright (c) Steve Scherf et al.
# Submitted via: audiograbber 1.83.01
#
DISCID=f3110612
DTITLE=Variados - De Tropeadas e Galpões
DYEAR=1900
DGENRE=Gaúcho
TTITLE0=Roberto Luçardo - Cruzada
TTITLE1=Bugre do Caraó - Remoendo capim
TTITLE2=Éder Goulart - De capa na mala
TTITLE3=Jari Terres - De fogões e inverneras
TTITLE4=Jairo Lambari Fernandes - Pra carregar a querência
TTITLE5=Helmo de Freitas - Passo das tropas
TTITLE6=Luiz Marenco - Onde andará
TTITLE7=Joca Martins - Chote e recado
TTITLE8=Juliano Javoski - De tropa, tempo e saudade
TTITLE9=Jairo Lambari Fernandes - Embaixo dos bastos
TTITLE10=Joca Martins - Em cima do laço
TTITLE11=Luiz Marenco - Estância da fronteira
TTITLE12=Rogério Melo - Tropilhas e ginetes
TTITLE13=Juliano Javoski - Remembrança
TTITLE14=Baitaca - Do fundo da grota
TTITLE15=Jari Terres - Um vistaço na tropa
TTITLE16=Eduardo Martinez - América Grande do Sul
TTITLE17=Omair Trindade - Memórias do tempo
EXTD=
EXTT0=
EXTT1=
EXTT2=
EXTT3=
EXTT4=
EXTT5=
EXTT6=
EXTT7=
EXTT8=
EXTT9=
EXTT10=
EXTT11=
EXTT12=
EXTT13=
EXTT14=
EXTT15=
EXTT16=
EXTT17=
PLAYORDER=
